<mxfile host="app.diagrams.net" modified="2023-09-09T05:45:39.676Z" agent="Mozilla/5.0 (Windows NT 10.0; Win64; x64) AppleWebKit/537.36 (KHTML, like Gecko) Chrome/116.0.0.0 Safari/537.36 Edg/116.0.1938.69" version="21.7.4" etag="rG7wSOVIAHM2bhCgQd09" type="github">
  <diagram name="PÃ¡gina-1" id="sV47CRGqTqnu8nYu1mC-">
    <mxGraphModel>
      <root>
        <mxCell id="0" />
        <mxCell id="1" parent="0" />
      </root>
    </mxGraphModel>
  </diagram>
</mxfile>
